<?xml version="1.0" standalone="no"?>
<!DOCTYPE svg PUBLIC "-//W3C//DTD SVG 20010904//EN"
 "http://www.w3.org/TR/2001/REC-SVG-20010904/DTD/svg10.dtd">
<svg version="1.0" xmlns="http://www.w3.org/2000/svg"
 width="512.000000pt" height="512.000000pt" viewBox="0 0 512.000000 512.000000"
 preserveAspectRatio="xMidYMid meet">

<g transform="translate(0.000000,512.000000) scale(0.100000,-0.100000)"
fill="#fff" stroke="none">
<path d="M3552 4368 c-584 -583 -672 -678 -721 -775 -61 -122 -82 -320 -47
-452 16 -62 16 -66 -1 -82 -10 -10 -92 -83 -182 -163 l-164 -145 -173 156
c-96 85 -174 157 -174 159 0 3 7 18 15 34 30 59 64 182 76 279 36 282 -74 577
-293 787 -387 373 -855 591 -1227 571 -130 -7 -201 -25 -310 -79 -117 -57
-212 -152 -270 -269 -63 -128 -76 -190 -75 -359 0 -123 4 -161 27 -252 65
-262 191 -505 394 -758 204 -254 376 -378 614 -442 168 -45 412 -25 574 47 55
24 59 24 77 8 10 -9 91 -99 180 -199 89 -101 175 -189 190 -195 15 -6 39 -8
53 -5 22 6 799 684 863 753 28 31 28 72 1 143 -26 69 -35 196 -20 272 29 140
20 129 707 818 673 675 654 653 622 713 -18 34 -40 46 -83 47 -39 0 -46 -6
-653 -612z m-2654 166 c238 -48 510 -194 757 -406 129 -110 180 -166 240 -263
70 -112 97 -207 103 -353 5 -150 -10 -224 -74 -361 -44 -93 -49 -115 -38 -145
3 -9 98 -97 210 -196 l203 -181 -94 -84 c-51 -47 -97 -85 -102 -85 -5 0 -83
84 -173 186 -90 102 -173 192 -184 200 -31 21 -60 17 -134 -20 -120 -60 -185
-77 -317 -83 -152 -6 -238 11 -360 71 -106 53 -202 131 -304 249 -290 337
-441 666 -444 967 -1 171 41 289 137 386 129 129 324 169 574 118z"/>
<path d="M4455 4710 c-11 -4 -244 -233 -517 -507 -456 -457 -498 -501 -498
-532 0 -23 9 -41 29 -62 38 -38 76 -38 127 0 68 50 962 955 973 984 6 16 8 39
5 52 -12 49 -76 84 -119 65z"/>
<path d="M4203 3957 c-461 -460 -503 -505 -503 -535 0 -46 16 -71 56 -88 29
-12 38 -12 67 0 41 18 992 971 1006 1009 8 21 7 36 -3 62 -17 39 -42 55 -88
55 -30 0 -75 -42 -535 -503z"/>
<path d="M4360 3536 c-344 -343 -643 -635 -665 -648 -83 -51 -154 -71 -255
-72 -82 -1 -107 3 -177 29 -76 27 -84 28 -111 15 -17 -9 -508 -555 -1106
-1230 -593 -668 -1096 -1230 -1118 -1248 -77 -61 -186 -77 -280 -42 -74 28
-122 70 -157 142 -41 81 -43 177 -7 253 30 64 34 68 641 604 281 248 520 465
533 483 29 40 28 69 -4 107 -35 42 -88 43 -136 4 -81 -68 -1103 -978 -1129
-1006 -42 -46 -97 -162 -110 -232 -40 -215 91 -446 298 -526 86 -33 221 -38
311 -10 133 40 130 37 863 863 375 423 686 767 690 766 4 -2 315 -349 692
-773 376 -424 700 -780 718 -792 87 -56 151 -77 250 -81 148 -6 248 29 351
126 167 156 198 412 74 606 -39 61 -30 53 -919 841 -409 363 -686 614 -683
622 3 7 69 84 146 171 l141 158 72 -19 c163 -42 376 -4 522 94 49 34 258 236
693 671 661 662 642 641 610 701 -18 34 -40 46 -83 47 -39 0 -46 -7 -665 -624z
m-785 -2039 c854 -758 831 -735 842 -856 9 -94 -17 -162 -86 -232 -70 -69
-138 -95 -232 -86 -119 11 -100 -8 -827 812 -366 413 -675 761 -688 775 l-23
25 112 127 c62 70 114 127 117 127 3 1 356 -311 785 -692z"/>
</g>
</svg>
